<svg xmlns="http://www.w3.org/2000/svg" xmlns:xlink="http://www.w3.org/1999/xlink" width="1080" zoomAndPan="magnify" viewBox="0 0 810 809.999993" height="1080" preserveAspectRatio="xMidYMid meet" version="1.0"><defs><g/><clipPath id="bc0dda5e67"><path d="M 0.414062 8.835938 L 809.585938 8.835938 L 809.585938 800.835938 L 0.414062 800.835938 Z M 0.414062 8.835938 " clip-rule="nonzero"/></clipPath><clipPath id="d189fd7afe"><path d="M 61.804688 61.804688 L 729 61.804688 L 729 729 L 61.804688 729 Z M 61.804688 61.804688 " clip-rule="nonzero"/></clipPath><clipPath id="5890d73c32"><path d="M 395.402344 61.804688 C 211.160156 61.804688 61.804688 211.160156 61.804688 395.402344 C 61.804688 579.644531 211.160156 729 395.402344 729 C 579.644531 729 729 579.644531 729 395.402344 C 729 211.160156 579.644531 61.804688 395.402344 61.804688 Z M 395.402344 61.804688 " clip-rule="nonzero"/></clipPath></defs><rect x="-81" width="972" fill="#ffffff" y="-80.999999" height="971.999992" fill-opacity="1"/><rect x="-81" width="972" fill="#ffffff" y="-80.999999" height="971.999992" fill-opacity="1"/><g clip-path="url(#bc0dda5e67)"><path fill="#fe705a" d="M 0.414062 254.511719 C 0.414062 149.671875 65.085938 55.144531 166.9375 30.140625 C 337.335938 -11.691406 594.527344 -46.152344 721.132812 80.402344 C 828.003906 187.234375 820.097656 387.070312 789.867188 549.222656 C 761.042969 703.816406 617.1875 800.835938 459.867188 800.835938 L 126.847656 800.835938 C 57.019531 800.835938 0.414062 744.253906 0.414062 674.453125 Z M 0.414062 254.511719 " fill-opacity="1" fill-rule="nonzero"/></g><path fill="#ffffff" d="M 503.429688 546.007812 C 504.152344 545.648438 504.878906 541.121094 505.601562 532.4375 C 506.6875 523.386719 507.773438 512.894531 508.859375 500.949219 C 509.949219 489.007812 510.851562 476.703125 511.578125 464.035156 C 512.300781 451.367188 512.84375 440.875 513.207031 432.550781 C 513.207031 427.84375 513.207031 421.148438 513.207031 412.464844 C 513.566406 403.777344 513.75 394.1875 513.75 383.691406 C 513.75 372.835938 513.75 361.613281 513.75 350.035156 C 514.109375 338.453125 514.109375 327.59375 513.75 317.460938 C 513.75 306.96875 513.566406 297.738281 513.207031 289.777344 C 513.207031 281.8125 513.207031 276.023438 513.207031 272.402344 C 513.207031 270.957031 512.664062 268.421875 511.578125 264.800781 C 510.851562 261.183594 509.949219 257.382812 508.859375 253.402344 C 508.136719 249.421875 507.230469 245.804688 506.148438 242.546875 C 505.058594 238.925781 504.152344 236.394531 503.429688 234.945312 C 490.757812 233.859375 477.90625 234.582031 464.871094 237.117188 C 451.835938 239.652344 438.984375 242.546875 426.3125 245.804688 C 413.640625 249.058594 400.96875 251.773438 388.296875 253.945312 C 375.988281 256.117188 364.21875 256.117188 352.996094 253.945312 C 350.097656 247.792969 352.816406 241.640625 361.140625 235.488281 C 369.832031 228.972656 382.324219 223.363281 398.617188 218.660156 C 414.90625 213.59375 433.914062 209.613281 455.640625 206.714844 C 477.363281 203.460938 499.808594 202.011719 522.980469 202.375 C 546.152344 202.734375 568.960938 205.269531 591.410156 209.972656 C 613.859375 214.316406 633.949219 221.554688 651.691406 231.691406 C 669.433594 241.460938 683.734375 254.308594 694.59375 270.234375 C 705.457031 286.15625 710.886719 305.878906 710.886719 329.402344 C 710.886719 337.730469 709.4375 346.59375 706.542969 356.003906 C 703.648438 365.414062 699.847656 374.824219 695.140625 384.234375 C 690.792969 393.644531 685.726562 402.691406 679.933594 411.378906 C 674.5 419.699219 669.070312 426.757812 663.640625 432.550781 C 661.105469 435.445312 656.941406 439.96875 651.148438 446.121094 C 645.355469 451.910156 638.65625 458.605469 631.054688 466.207031 C 623.8125 473.808594 616.027344 481.769531 607.703125 490.09375 C 599.375 498.054688 591.410156 505.835938 583.804688 513.4375 C 576.566406 520.675781 569.867188 527.1875 563.710938 532.980469 C 557.917969 538.769531 553.574219 543.113281 550.679688 546.007812 C 549.59375 554.695312 548.144531 562.65625 546.335938 569.894531 C 544.523438 577.132812 541.808594 582.742188 538.1875 586.722656 C 534.566406 590.703125 529.859375 592.511719 524.066406 592.152344 C 518.636719 592.152344 511.757812 589.257812 503.429688 583.464844 C 495.464844 588.894531 486.957031 596.496094 477.90625 606.265625 C 469.214844 616.398438 460.164062 625.992188 450.75 635.039062 C 441.335938 644.449219 431.5625 651.867188 421.425781 657.296875 C 411.285156 662.726562 401.148438 663.269531 391.011719 658.925781 L 391.011719 639.925781 Z M 550.679688 508.007812 C 573.488281 498.597656 593.582031 484.84375 610.960938 466.75 C 628.703125 448.292969 642.640625 428.207031 652.777344 406.492188 C 663.277344 384.777344 669.613281 362.878906 671.785156 340.804688 C 673.957031 318.367188 671.242188 298.644531 663.640625 281.632812 C 656.035156 264.625 643.003906 251.59375 624.539062 242.546875 C 606.433594 233.136719 581.816406 230.601562 550.679688 234.945312 Z M 550.679688 508.007812 " fill-opacity="1" fill-rule="nonzero"/><path fill="#ffffff" d="M 171.941406 580.203125 C 171.582031 573.691406 171.039062 563.917969 170.3125 550.890625 C 169.953125 537.496094 169.40625 522.480469 168.683594 505.832031 C 168.324219 488.820312 167.777344 471.089844 167.054688 452.632812 C 166.332031 434.175781 165.605469 416.621094 164.882812 399.972656 C 164.519531 383.324219 164.160156 368.488281 163.796875 355.457031 C 163.433594 342.066406 163.253906 332.117188 163.253906 325.601562 C 163.253906 323.429688 163.070312 319.808594 162.710938 314.742188 C 162.710938 309.3125 162.710938 303.703125 162.710938 297.914062 C 162.710938 291.761719 162.710938 285.96875 162.710938 280.542969 C 163.070312 275.113281 163.253906 271.3125 163.253906 269.144531 C 158.910156 271.3125 153.660156 275.113281 147.503906 280.542969 C 141.710938 285.96875 135.375 291.941406 128.496094 298.457031 C 121.617188 304.609375 114.558594 310.398438 107.316406 315.828125 C 100.4375 320.894531 93.917969 324.152344 87.765625 325.601562 C 79.4375 320.535156 75.636719 314.382812 76.359375 307.140625 C 77.085938 299.542969 81.066406 291.582031 88.308594 283.257812 C 95.910156 274.570312 105.867188 265.703125 118.175781 256.65625 C 130.847656 247.609375 144.605469 238.921875 159.453125 230.601562 C 174.660156 222.273438 190.226562 214.671875 206.15625 207.796875 C 222.085938 200.921875 237.113281 195.3125 251.234375 190.972656 C 265.714844 186.265625 278.386719 183.371094 289.246094 182.285156 C 300.472656 180.835938 308.800781 181.558594 314.230469 184.453125 C 324.367188 194.949219 329.253906 207.980469 328.890625 223.539062 C 328.53125 239.105469 325.089844 255.75 318.574219 273.484375 C 312.058594 291.21875 303.550781 309.675781 293.050781 328.855469 C 282.550781 348.039062 272.410156 366.675781 262.636719 384.773438 C 252.863281 402.503906 244.535156 419.335938 237.65625 435.257812 C 230.777344 450.820312 227.519531 464.210938 227.878906 475.429688 C 228.242188 486.648438 233.492188 494.972656 243.628906 500.402344 C 253.765625 505.832031 270.964844 507.097656 295.222656 504.203125 C 307.53125 501.308594 320.382812 496.785156 333.78125 490.632812 C 347.179688 484.117188 360.210938 477.058594 372.882812 469.457031 C 385.554688 461.496094 397.320312 453.171875 408.183594 444.488281 C 419.40625 435.800781 428.820312 427.660156 436.421875 420.058594 C 449.09375 423.316406 456.15625 428.019531 457.601562 434.175781 C 459.050781 440.328125 456.515625 447.203125 450 454.804688 C 443.847656 462.402344 434.433594 470.363281 421.761719 478.691406 C 409.089844 487.011719 394.789062 495.15625 378.855469 503.117188 C 362.925781 510.71875 346.273438 517.59375 328.890625 523.746094 C 311.875 529.898438 295.402344 534.601562 279.472656 537.859375 C 263.902344 541.117188 249.785156 542.566406 237.113281 542.203125 C 224.804688 541.84375 215.75 538.765625 209.957031 532.976562 C 209.957031 535.148438 209.777344 538.945312 209.414062 544.375 C 209.050781 549.804688 208.328125 555.59375 207.242188 561.75 C 206.15625 567.535156 204.34375 573.144531 201.8125 578.574219 C 199.277344 583.640625 195.65625 587.261719 190.953125 589.433594 C 186.96875 591.242188 183.167969 590.878906 179.546875 588.347656 C 176.285156 585.8125 173.753906 583.101562 171.941406 580.203125 Z M 200.726562 460.773438 L 300.652344 237.65625 C 298.117188 229.332031 293.773438 223.539062 287.621094 220.285156 C 281.824219 216.664062 275.128906 215.035156 267.523438 215.398438 C 259.921875 215.398438 252.136719 217.027344 244.171875 220.285156 C 236.207031 223.539062 228.785156 227.523438 221.90625 232.226562 C 215.390625 236.570312 209.957031 241.457031 205.613281 246.882812 C 201.269531 251.953125 199.097656 256.65625 199.097656 261 Z M 200.726562 460.773438 " fill-opacity="1" fill-rule="nonzero"/><g clip-path="url(#d189fd7afe)"><g clip-path="url(#5890d73c32)"><path fill="#fe705a" d="M 61.804688 61.804688 L 729 61.804688 L 729 729 L 61.804688 729 Z M 61.804688 61.804688 " fill-opacity="1" fill-rule="nonzero"/></g></g><g fill="#ffffff" fill-opacity="1"><g transform="translate(31.989169, 476.657373)"><g><path d="M 317.953125 120.8125 C 303.128906 124.820312 288.804688 125.125 274.984375 121.71875 C 261.160156 118.3125 248.035156 112.195312 235.609375 103.375 C 227.191406 96.5625 219.773438 89.148438 213.359375 81.140625 C 206.953125 73.128906 200.945312 64.515625 195.34375 55.296875 C 192.539062 50.890625 190.035156 46.28125 187.828125 41.46875 C 185.617188 36.664062 183.113281 31.859375 180.3125 27.046875 C 180.3125 23.835938 179.910156 21.832031 179.109375 21.03125 C 173.503906 11.820312 168.597656 2.410156 164.390625 -7.203125 C 160.179688 -16.828125 156.273438 -26.445312 152.671875 -36.0625 C 152.671875 -36.863281 152.671875 -37.765625 152.671875 -38.765625 C 152.671875 -39.765625 152.867188 -40.664062 153.265625 -41.46875 C 153.265625 -43.070312 153.5625 -44.472656 154.15625 -45.671875 C 154.757812 -46.878906 155.265625 -48.082031 155.671875 -49.28125 C 157.671875 -52.09375 160.171875 -54.195312 163.171875 -55.59375 C 166.179688 -57 169.09375 -57.300781 171.90625 -56.5 C 173.90625 -56.09375 175.707031 -55.6875 177.3125 -55.28125 C 178.914062 -54.882812 180.316406 -54.085938 181.515625 -52.890625 C 187.523438 -54.492188 193.234375 -56.5 198.640625 -58.90625 C 204.054688 -61.3125 208.765625 -64.515625 212.765625 -68.515625 C 213.566406 -69.316406 214.566406 -69.914062 215.765625 -70.3125 C 216.972656 -70.71875 218.175781 -71.320312 219.375 -72.125 C 220.976562 -72.925781 222.679688 -73.925781 224.484375 -75.125 C 226.296875 -76.332031 228 -77.132812 229.59375 -77.53125 C 232.800781 -79.9375 236.007812 -82.539062 239.21875 -85.34375 C 242.425781 -88.15625 245.832031 -90.5625 249.4375 -92.5625 C 251.4375 -93.757812 253.132812 -95.0625 254.53125 -96.46875 C 255.9375 -97.875 257.441406 -99.375 259.046875 -100.96875 C 260.648438 -102.976562 262.050781 -105.082031 263.25 -107.28125 C 264.457031 -109.488281 266.460938 -110.789062 269.265625 -111.1875 C 270.066406 -111.1875 270.46875 -111.789062 270.46875 -113 C 272.875 -117.800781 275.976562 -122.207031 279.78125 -126.21875 C 283.59375 -130.226562 286.5 -134.4375 288.5 -138.84375 C 295.3125 -149.257812 300.117188 -160.078125 302.921875 -171.296875 C 305.734375 -182.515625 306.132812 -194.535156 304.125 -207.359375 C 300.519531 -222.585938 292.910156 -235.8125 281.296875 -247.03125 C 274.878906 -253.4375 267.863281 -257.742188 260.25 -259.953125 C 252.632812 -262.160156 244.421875 -263.265625 235.609375 -263.265625 C 231.203125 -263.265625 226.59375 -263.0625 221.78125 -262.65625 C 216.976562 -262.257812 212.375 -261.457031 207.96875 -260.25 C 201.957031 -259.851562 196.144531 -259.351562 190.53125 -258.75 C 184.914062 -258.144531 179.503906 -256.644531 174.296875 -254.25 C 171.898438 -253.84375 169.898438 -253.238281 168.296875 -252.4375 C 166.691406 -251.632812 164.890625 -251.035156 162.890625 -250.640625 C 162.085938 -250.234375 161.382812 -249.726562 160.78125 -249.125 C 160.175781 -248.53125 159.472656 -248.234375 158.671875 -248.234375 C 152.265625 -246.234375 145.851562 -243.226562 139.4375 -239.21875 C 133.03125 -235.207031 126.421875 -231.597656 119.609375 -228.390625 C 119.203125 -227.992188 118.695312 -227.796875 118.09375 -227.796875 C 117.5 -227.796875 116.800781 -227.597656 116 -227.203125 C 109.1875 -221.984375 102.472656 -216.671875 95.859375 -211.265625 C 89.253906 -205.859375 83.144531 -199.347656 77.53125 -191.734375 C 74.726562 -188.128906 72.125 -184.722656 69.71875 -181.515625 C 67.3125 -178.304688 64.707031 -174.703125 61.90625 -170.703125 C 59.5 -166.691406 57.59375 -162.78125 56.1875 -158.96875 C 54.789062 -155.164062 54.289062 -150.460938 54.6875 -144.859375 C 55.488281 -142.046875 55.1875 -139.4375 53.78125 -137.03125 C 52.382812 -134.632812 50.082031 -132.234375 46.875 -129.828125 C 46.476562 -129.023438 45.175781 -128.921875 42.96875 -129.515625 C 40.769531 -130.117188 39.269531 -130.820312 38.46875 -131.625 C 37.257812 -135.632812 35.851562 -139.34375 34.25 -142.75 C 32.65625 -146.15625 31.457031 -150.0625 30.65625 -154.46875 C 30.25 -156.875 30.445312 -159.578125 31.25 -162.578125 C 32.050781 -165.585938 32.851562 -168.296875 33.65625 -170.703125 C 34.863281 -173.898438 36.367188 -176.703125 38.171875 -179.109375 C 39.972656 -181.515625 41.675781 -184.117188 43.28125 -186.921875 C 49.289062 -193.734375 55.597656 -200.34375 62.203125 -206.75 C 68.816406 -213.164062 75.332031 -218.976562 81.75 -224.1875 C 89.351562 -230.195312 97.0625 -235.90625 104.875 -241.3125 C 112.695312 -246.726562 120.8125 -251.640625 129.21875 -256.046875 C 146.851562 -265.660156 165.488281 -271.671875 185.125 -274.078125 C 193.132812 -275.273438 201.046875 -275.972656 208.859375 -276.171875 C 216.671875 -276.378906 224.382812 -276.484375 232 -276.484375 C 237.613281 -276.484375 243.023438 -275.976562 248.234375 -274.96875 C 253.441406 -273.96875 258.648438 -272.269531 263.859375 -269.875 C 271.066406 -265.863281 278.078125 -261.453125 284.890625 -256.640625 C 291.703125 -251.835938 297.914062 -245.628906 303.53125 -238.015625 C 306.738281 -234.410156 309.34375 -230.503906 311.34375 -226.296875 C 313.34375 -222.085938 315.144531 -217.175781 316.75 -211.5625 C 319.550781 -202.75 320.953125 -194.132812 320.953125 -185.71875 C 320.953125 -177.300781 319.953125 -168.285156 317.953125 -158.671875 C 316.753906 -154.265625 315.148438 -149.957031 313.140625 -145.75 C 311.140625 -141.539062 309.140625 -137.234375 307.140625 -132.828125 C 303.128906 -124.816406 298.117188 -117.503906 292.109375 -110.890625 C 286.097656 -104.273438 279.882812 -98.164062 273.46875 -92.5625 C 267.0625 -86.945312 260.648438 -81.9375 254.234375 -77.53125 C 247.828125 -73.125 240.816406 -69.316406 233.203125 -66.109375 C 225.992188 -62.910156 218.484375 -59.503906 210.671875 -55.890625 C 202.859375 -52.285156 194.742188 -49.082031 186.328125 -46.28125 C 187.929688 -42.675781 189.632812 -39.171875 191.4375 -35.765625 C 193.238281 -32.359375 193.738281 -28.648438 192.9375 -24.640625 C 193.332031 -21.835938 195.132812 -18.632812 198.34375 -15.03125 C 197.539062 -13.425781 197.335938 -12.117188 197.734375 -11.109375 C 198.140625 -10.109375 198.742188 -8.609375 199.546875 -6.609375 C 201.148438 -4.203125 202.550781 -1.695312 203.75 0.90625 C 204.957031 3.507812 206.160156 6.015625 207.359375 8.421875 C 207.359375 8.816406 207.160156 9.015625 206.765625 9.015625 C 207.160156 10.210938 207.554688 11.515625 207.953125 12.921875 C 208.359375 14.328125 208.765625 15.429688 209.171875 16.234375 C 218.378906 36.660156 229.394531 55.691406 242.21875 73.328125 C 250.632812 83.347656 260.148438 91.257812 270.765625 97.0625 C 281.390625 102.875 293.113281 106.785156 305.9375 108.796875 C 313.144531 109.191406 319.351562 108.890625 324.5625 107.890625 C 329.769531 106.890625 334.976562 104.382812 340.1875 100.375 C 342.195312 99.175781 343.898438 97.875 345.296875 96.46875 C 346.703125 95.0625 348.40625 93.359375 350.40625 91.359375 C 351.207031 92.960938 351.304688 94.363281 350.703125 95.5625 C 350.109375 96.769531 349.410156 97.773438 348.609375 98.578125 C 344.597656 103.785156 340.1875 108.289062 335.375 112.09375 C 330.570312 115.90625 324.765625 118.8125 317.953125 120.8125 Z M 96.765625 91.359375 C 97.566406 92.960938 96.460938 94.664062 93.453125 96.46875 C 90.453125 98.269531 86.75 98.367188 82.34375 96.765625 C 77.9375 95.160156 73.726562 90.351562 69.71875 82.34375 C 68.113281 77.53125 66.410156 72.617188 64.609375 67.609375 C 62.804688 62.609375 61.90625 57.503906 61.90625 52.296875 C 61.90625 51.085938 61.804688 49.679688 61.609375 48.078125 C 61.410156 46.472656 61.109375 44.875 60.703125 43.28125 L 66.71875 19.828125 C 71.125 13.816406 73.328125 6.207031 73.328125 -3 C 72.929688 -4.601562 73.332031 -6.804688 74.53125 -9.609375 C 76.53125 -14.828125 78.734375 -20.140625 81.140625 -25.546875 C 83.546875 -30.953125 85.148438 -36.660156 85.953125 -42.671875 L 85.953125 -42.078125 C 87.953125 -45.679688 89.953125 -49.484375 91.953125 -53.484375 C 93.960938 -57.492188 94.96875 -61.300781 94.96875 -64.90625 C 100.175781 -72.519531 103.582031 -80.132812 105.1875 -87.75 C 103.582031 -92.15625 103.476562 -95.457031 104.875 -97.65625 C 106.28125 -99.863281 107.785156 -102.375 109.390625 -105.1875 C 111.390625 -108.382812 112.988281 -111.484375 114.1875 -114.484375 C 115.394531 -117.492188 116.800781 -121.003906 118.40625 -125.015625 C 121.613281 -133.429688 124.921875 -141.847656 128.328125 -150.265625 C 131.734375 -158.679688 134.835938 -167.296875 137.640625 -176.109375 C 139.242188 -178.515625 140.242188 -180.71875 140.640625 -182.71875 C 141.046875 -184.71875 141.648438 -187.523438 142.453125 -191.140625 C 141.242188 -194.335938 140.238281 -197.640625 139.4375 -201.046875 C 138.632812 -204.453125 139.035156 -208.5625 140.640625 -213.375 C 145.847656 -215.375 151.359375 -216.773438 157.171875 -217.578125 C 162.984375 -218.378906 168.894531 -218.582031 174.90625 -218.1875 C 178.113281 -218.1875 180.914062 -216.78125 183.3125 -213.96875 C 185.71875 -211.164062 186.921875 -208.160156 186.921875 -204.953125 C 186.523438 -202.953125 186.222656 -200.847656 186.015625 -198.640625 C 185.816406 -196.441406 185.316406 -194.335938 184.515625 -192.328125 C 182.910156 -189.523438 181.609375 -186.617188 180.609375 -183.609375 C 179.609375 -180.609375 178.109375 -177.707031 176.109375 -174.90625 C 172.503906 -166.488281 168.894531 -158.472656 165.28125 -150.859375 C 161.675781 -143.242188 157.671875 -135.429688 153.265625 -127.421875 C 148.054688 -115.003906 142.347656 -102.28125 136.140625 -89.25 C 129.929688 -76.226562 123.617188 -63.304688 117.203125 -50.484375 C 114.796875 -45.273438 112.488281 -40.066406 110.28125 -34.859375 C 108.082031 -29.648438 105.984375 -24.039062 103.984375 -18.03125 C 102.378906 -15.226562 101.273438 -12.421875 100.671875 -9.609375 C 100.078125 -6.804688 99.378906 -3.601562 98.578125 0 C 96.972656 5.207031 95.566406 11.113281 94.359375 17.71875 C 93.160156 24.332031 91.5625 30.847656 89.5625 37.265625 C 87.15625 46.878906 86.25 56.191406 86.84375 65.203125 C 87.445312 74.222656 90.753906 82.941406 96.765625 91.359375 Z M 96.765625 91.359375 "/></g></g></g><g fill="#ffffff" fill-opacity="1"><g transform="translate(366.771257, 476.657373)"><g><path d="M 317.953125 120.8125 C 303.128906 124.820312 288.804688 125.125 274.984375 121.71875 C 261.160156 118.3125 248.035156 112.195312 235.609375 103.375 C 227.191406 96.5625 219.773438 89.148438 213.359375 81.140625 C 206.953125 73.128906 200.945312 64.515625 195.34375 55.296875 C 192.539062 50.890625 190.035156 46.28125 187.828125 41.46875 C 185.617188 36.664062 183.113281 31.859375 180.3125 27.046875 C 180.3125 23.835938 179.910156 21.832031 179.109375 21.03125 C 173.503906 11.820312 168.597656 2.410156 164.390625 -7.203125 C 160.179688 -16.828125 156.273438 -26.445312 152.671875 -36.0625 C 152.671875 -36.863281 152.671875 -37.765625 152.671875 -38.765625 C 152.671875 -39.765625 152.867188 -40.664062 153.265625 -41.46875 C 153.265625 -43.070312 153.5625 -44.472656 154.15625 -45.671875 C 154.757812 -46.878906 155.265625 -48.082031 155.671875 -49.28125 C 157.671875 -52.09375 160.171875 -54.195312 163.171875 -55.59375 C 166.179688 -57 169.09375 -57.300781 171.90625 -56.5 C 173.90625 -56.09375 175.707031 -55.6875 177.3125 -55.28125 C 178.914062 -54.882812 180.316406 -54.085938 181.515625 -52.890625 C 187.523438 -54.492188 193.234375 -56.5 198.640625 -58.90625 C 204.054688 -61.3125 208.765625 -64.515625 212.765625 -68.515625 C 213.566406 -69.316406 214.566406 -69.914062 215.765625 -70.3125 C 216.972656 -70.71875 218.175781 -71.320312 219.375 -72.125 C 220.976562 -72.925781 222.679688 -73.925781 224.484375 -75.125 C 226.296875 -76.332031 228 -77.132812 229.59375 -77.53125 C 232.800781 -79.9375 236.007812 -82.539062 239.21875 -85.34375 C 242.425781 -88.15625 245.832031 -90.5625 249.4375 -92.5625 C 251.4375 -93.757812 253.132812 -95.0625 254.53125 -96.46875 C 255.9375 -97.875 257.441406 -99.375 259.046875 -100.96875 C 260.648438 -102.976562 262.050781 -105.082031 263.25 -107.28125 C 264.457031 -109.488281 266.460938 -110.789062 269.265625 -111.1875 C 270.066406 -111.1875 270.46875 -111.789062 270.46875 -113 C 272.875 -117.800781 275.976562 -122.207031 279.78125 -126.21875 C 283.59375 -130.226562 286.5 -134.4375 288.5 -138.84375 C 295.3125 -149.257812 300.117188 -160.078125 302.921875 -171.296875 C 305.734375 -182.515625 306.132812 -194.535156 304.125 -207.359375 C 300.519531 -222.585938 292.910156 -235.8125 281.296875 -247.03125 C 274.878906 -253.4375 267.863281 -257.742188 260.25 -259.953125 C 252.632812 -262.160156 244.421875 -263.265625 235.609375 -263.265625 C 231.203125 -263.265625 226.59375 -263.0625 221.78125 -262.65625 C 216.976562 -262.257812 212.375 -261.457031 207.96875 -260.25 C 201.957031 -259.851562 196.144531 -259.351562 190.53125 -258.75 C 184.914062 -258.144531 179.503906 -256.644531 174.296875 -254.25 C 171.898438 -253.84375 169.898438 -253.238281 168.296875 -252.4375 C 166.691406 -251.632812 164.890625 -251.035156 162.890625 -250.640625 C 162.085938 -250.234375 161.382812 -249.726562 160.78125 -249.125 C 160.175781 -248.53125 159.472656 -248.234375 158.671875 -248.234375 C 152.265625 -246.234375 145.851562 -243.226562 139.4375 -239.21875 C 133.03125 -235.207031 126.421875 -231.597656 119.609375 -228.390625 C 119.203125 -227.992188 118.695312 -227.796875 118.09375 -227.796875 C 117.5 -227.796875 116.800781 -227.597656 116 -227.203125 C 109.1875 -221.984375 102.472656 -216.671875 95.859375 -211.265625 C 89.253906 -205.859375 83.144531 -199.347656 77.53125 -191.734375 C 74.726562 -188.128906 72.125 -184.722656 69.71875 -181.515625 C 67.3125 -178.304688 64.707031 -174.703125 61.90625 -170.703125 C 59.5 -166.691406 57.59375 -162.78125 56.1875 -158.96875 C 54.789062 -155.164062 54.289062 -150.460938 54.6875 -144.859375 C 55.488281 -142.046875 55.1875 -139.4375 53.78125 -137.03125 C 52.382812 -134.632812 50.082031 -132.234375 46.875 -129.828125 C 46.476562 -129.023438 45.175781 -128.921875 42.96875 -129.515625 C 40.769531 -130.117188 39.269531 -130.820312 38.46875 -131.625 C 37.257812 -135.632812 35.851562 -139.34375 34.25 -142.75 C 32.65625 -146.15625 31.457031 -150.0625 30.65625 -154.46875 C 30.25 -156.875 30.445312 -159.578125 31.25 -162.578125 C 32.050781 -165.585938 32.851562 -168.296875 33.65625 -170.703125 C 34.863281 -173.898438 36.367188 -176.703125 38.171875 -179.109375 C 39.972656 -181.515625 41.675781 -184.117188 43.28125 -186.921875 C 49.289062 -193.734375 55.597656 -200.34375 62.203125 -206.75 C 68.816406 -213.164062 75.332031 -218.976562 81.75 -224.1875 C 89.351562 -230.195312 97.0625 -235.90625 104.875 -241.3125 C 112.695312 -246.726562 120.8125 -251.640625 129.21875 -256.046875 C 146.851562 -265.660156 165.488281 -271.671875 185.125 -274.078125 C 193.132812 -275.273438 201.046875 -275.972656 208.859375 -276.171875 C 216.671875 -276.378906 224.382812 -276.484375 232 -276.484375 C 237.613281 -276.484375 243.023438 -275.976562 248.234375 -274.96875 C 253.441406 -273.96875 258.648438 -272.269531 263.859375 -269.875 C 271.066406 -265.863281 278.078125 -261.453125 284.890625 -256.640625 C 291.703125 -251.835938 297.914062 -245.628906 303.53125 -238.015625 C 306.738281 -234.410156 309.34375 -230.503906 311.34375 -226.296875 C 313.34375 -222.085938 315.144531 -217.175781 316.75 -211.5625 C 319.550781 -202.75 320.953125 -194.132812 320.953125 -185.71875 C 320.953125 -177.300781 319.953125 -168.285156 317.953125 -158.671875 C 316.753906 -154.265625 315.148438 -149.957031 313.140625 -145.75 C 311.140625 -141.539062 309.140625 -137.234375 307.140625 -132.828125 C 303.128906 -124.816406 298.117188 -117.503906 292.109375 -110.890625 C 286.097656 -104.273438 279.882812 -98.164062 273.46875 -92.5625 C 267.0625 -86.945312 260.648438 -81.9375 254.234375 -77.53125 C 247.828125 -73.125 240.816406 -69.316406 233.203125 -66.109375 C 225.992188 -62.910156 218.484375 -59.503906 210.671875 -55.890625 C 202.859375 -52.285156 194.742188 -49.082031 186.328125 -46.28125 C 187.929688 -42.675781 189.632812 -39.171875 191.4375 -35.765625 C 193.238281 -32.359375 193.738281 -28.648438 192.9375 -24.640625 C 193.332031 -21.835938 195.132812 -18.632812 198.34375 -15.03125 C 197.539062 -13.425781 197.335938 -12.117188 197.734375 -11.109375 C 198.140625 -10.109375 198.742188 -8.609375 199.546875 -6.609375 C 201.148438 -4.203125 202.550781 -1.695312 203.75 0.90625 C 204.957031 3.507812 206.160156 6.015625 207.359375 8.421875 C 207.359375 8.816406 207.160156 9.015625 206.765625 9.015625 C 207.160156 10.210938 207.554688 11.515625 207.953125 12.921875 C 208.359375 14.328125 208.765625 15.429688 209.171875 16.234375 C 218.378906 36.660156 229.394531 55.691406 242.21875 73.328125 C 250.632812 83.347656 260.148438 91.257812 270.765625 97.0625 C 281.390625 102.875 293.113281 106.785156 305.9375 108.796875 C 313.144531 109.191406 319.351562 108.890625 324.5625 107.890625 C 329.769531 106.890625 334.976562 104.382812 340.1875 100.375 C 342.195312 99.175781 343.898438 97.875 345.296875 96.46875 C 346.703125 95.0625 348.40625 93.359375 350.40625 91.359375 C 351.207031 92.960938 351.304688 94.363281 350.703125 95.5625 C 350.109375 96.769531 349.410156 97.773438 348.609375 98.578125 C 344.597656 103.785156 340.1875 108.289062 335.375 112.09375 C 330.570312 115.90625 324.765625 118.8125 317.953125 120.8125 Z M 96.765625 91.359375 C 97.566406 92.960938 96.460938 94.664062 93.453125 96.46875 C 90.453125 98.269531 86.75 98.367188 82.34375 96.765625 C 77.9375 95.160156 73.726562 90.351562 69.71875 82.34375 C 68.113281 77.53125 66.410156 72.617188 64.609375 67.609375 C 62.804688 62.609375 61.90625 57.503906 61.90625 52.296875 C 61.90625 51.085938 61.804688 49.679688 61.609375 48.078125 C 61.410156 46.472656 61.109375 44.875 60.703125 43.28125 L 66.71875 19.828125 C 71.125 13.816406 73.328125 6.207031 73.328125 -3 C 72.929688 -4.601562 73.332031 -6.804688 74.53125 -9.609375 C 76.53125 -14.828125 78.734375 -20.140625 81.140625 -25.546875 C 83.546875 -30.953125 85.148438 -36.660156 85.953125 -42.671875 L 85.953125 -42.078125 C 87.953125 -45.679688 89.953125 -49.484375 91.953125 -53.484375 C 93.960938 -57.492188 94.96875 -61.300781 94.96875 -64.90625 C 100.175781 -72.519531 103.582031 -80.132812 105.1875 -87.75 C 103.582031 -92.15625 103.476562 -95.457031 104.875 -97.65625 C 106.28125 -99.863281 107.785156 -102.375 109.390625 -105.1875 C 111.390625 -108.382812 112.988281 -111.484375 114.1875 -114.484375 C 115.394531 -117.492188 116.800781 -121.003906 118.40625 -125.015625 C 121.613281 -133.429688 124.921875 -141.847656 128.328125 -150.265625 C 131.734375 -158.679688 134.835938 -167.296875 137.640625 -176.109375 C 139.242188 -178.515625 140.242188 -180.71875 140.640625 -182.71875 C 141.046875 -184.71875 141.648438 -187.523438 142.453125 -191.140625 C 141.242188 -194.335938 140.238281 -197.640625 139.4375 -201.046875 C 138.632812 -204.453125 139.035156 -208.5625 140.640625 -213.375 C 145.847656 -215.375 151.359375 -216.773438 157.171875 -217.578125 C 162.984375 -218.378906 168.894531 -218.582031 174.90625 -218.1875 C 178.113281 -218.1875 180.914062 -216.78125 183.3125 -213.96875 C 185.71875 -211.164062 186.921875 -208.160156 186.921875 -204.953125 C 186.523438 -202.953125 186.222656 -200.847656 186.015625 -198.640625 C 185.816406 -196.441406 185.316406 -194.335938 184.515625 -192.328125 C 182.910156 -189.523438 181.609375 -186.617188 180.609375 -183.609375 C 179.609375 -180.609375 178.109375 -177.707031 176.109375 -174.90625 C 172.503906 -166.488281 168.894531 -158.472656 165.28125 -150.859375 C 161.675781 -143.242188 157.671875 -135.429688 153.265625 -127.421875 C 148.054688 -115.003906 142.347656 -102.28125 136.140625 -89.25 C 129.929688 -76.226562 123.617188 -63.304688 117.203125 -50.484375 C 114.796875 -45.273438 112.488281 -40.066406 110.28125 -34.859375 C 108.082031 -29.648438 105.984375 -24.039062 103.984375 -18.03125 C 102.378906 -15.226562 101.273438 -12.421875 100.671875 -9.609375 C 100.078125 -6.804688 99.378906 -3.601562 98.578125 0 C 96.972656 5.207031 95.566406 11.113281 94.359375 17.71875 C 93.160156 24.332031 91.5625 30.847656 89.5625 37.265625 C 87.15625 46.878906 86.25 56.191406 86.84375 65.203125 C 87.445312 74.222656 90.753906 82.941406 96.765625 91.359375 Z M 96.765625 91.359375 "/></g></g></g></svg>